<?xml version="1.0" encoding="UTF-8" ?>
<svg version="1.1" width="32" height="32" xmlns="http://www.w3.org/2000/svg" shape-rendering="crispEdges">
<rect x="3" y="5" width="1" height="1" fill="currentColor" />
<rect x="4" y="5" width="1" height="1" fill="currentColor" />
<rect x="5" y="5" width="1" height="1" fill="currentColor" />
<rect x="6" y="5" width="1" height="1" fill="currentColor" />
<rect x="7" y="5" width="1" height="1" fill="currentColor" />
<rect x="8" y="5" width="1" height="1" fill="currentColor" />
<rect x="9" y="5" width="1" height="1" fill="currentColor" />
<rect x="10" y="5" width="1" height="1" fill="currentColor" />
<rect x="11" y="5" width="1" height="1" fill="currentColor" />
<rect x="12" y="5" width="1" height="1" fill="currentColor" />
<rect x="13" y="5" width="1" height="1" fill="currentColor" />
<rect x="14" y="5" width="1" height="1" fill="currentColor" />
<rect x="15" y="5" width="1" height="1" fill="currentColor" />
<rect x="16" y="5" width="1" height="1" fill="currentColor" />
<rect x="17" y="5" width="1" height="1" fill="currentColor" />
<rect x="18" y="5" width="1" height="1" fill="currentColor" />
<rect x="19" y="5" width="1" height="1" fill="currentColor" />
<rect x="20" y="5" width="1" height="1" fill="currentColor" />
<rect x="21" y="5" width="1" height="1" fill="currentColor" />
<rect x="22" y="5" width="1" height="1" fill="currentColor" />
<rect x="23" y="5" width="1" height="1" fill="currentColor" />
<rect x="24" y="5" width="1" height="1" fill="currentColor" />
<rect x="25" y="5" width="1" height="1" fill="currentColor" />
<rect x="26" y="5" width="1" height="1" fill="currentColor" />
<rect x="27" y="5" width="1" height="1" fill="currentColor" />
<rect x="28" y="5" width="1" height="1" fill="currentColor" />
<rect x="2" y="6" width="1" height="1" fill="currentColor" />
<rect x="3" y="6" width="1" height="1" fill="currentColor" />
<rect x="4" y="6" width="1" height="1" fill="currentColor" />
<rect x="5" y="6" width="1" height="1" fill="currentColor" />
<rect x="6" y="6" width="1" height="1" fill="currentColor" />
<rect x="7" y="6" width="1" height="1" fill="currentColor" />
<rect x="8" y="6" width="1" height="1" fill="currentColor" />
<rect x="9" y="6" width="1" height="1" fill="currentColor" />
<rect x="10" y="6" width="1" height="1" fill="currentColor" />
<rect x="11" y="6" width="1" height="1" fill="currentColor" />
<rect x="12" y="6" width="1" height="1" fill="currentColor" />
<rect x="13" y="6" width="1" height="1" fill="currentColor" />
<rect x="14" y="6" width="1" height="1" fill="currentColor" />
<rect x="15" y="6" width="1" height="1" fill="currentColor" />
<rect x="16" y="6" width="1" height="1" fill="currentColor" />
<rect x="17" y="6" width="1" height="1" fill="currentColor" />
<rect x="18" y="6" width="1" height="1" fill="currentColor" />
<rect x="19" y="6" width="1" height="1" fill="currentColor" />
<rect x="20" y="6" width="1" height="1" fill="currentColor" />
<rect x="21" y="6" width="1" height="1" fill="currentColor" />
<rect x="22" y="6" width="1" height="1" fill="currentColor" />
<rect x="23" y="6" width="1" height="1" fill="currentColor" />
<rect x="24" y="6" width="1" height="1" fill="currentColor" />
<rect x="25" y="6" width="1" height="1" fill="currentColor" />
<rect x="26" y="6" width="1" height="1" fill="currentColor" />
<rect x="27" y="6" width="1" height="1" fill="currentColor" />
<rect x="28" y="6" width="1" height="1" fill="currentColor" />
<rect x="29" y="6" width="1" height="1" fill="currentColor" />
<rect x="1" y="7" width="1" height="1" fill="currentColor" />
<rect x="2" y="7" width="1" height="1" fill="currentColor" />
<rect x="3" y="7" width="1" height="1" fill="currentColor" />
<rect x="4" y="7" width="1" height="1" fill="currentColor" />
<rect x="27" y="7" width="1" height="1" fill="currentColor" />
<rect x="28" y="7" width="1" height="1" fill="currentColor" />
<rect x="29" y="7" width="1" height="1" fill="currentColor" />
<rect x="30" y="7" width="1" height="1" fill="currentColor" />
<rect x="0" y="8" width="1" height="1" fill="currentColor" />
<rect x="1" y="8" width="1" height="1" fill="currentColor" />
<rect x="2" y="8" width="1" height="1" fill="currentColor" />
<rect x="3" y="8" width="1" height="1" fill="currentColor" />
<rect x="4" y="8" width="1" height="1" fill="currentColor" />
<rect x="5" y="8" width="1" height="1" fill="currentColor" />
<rect x="26" y="8" width="1" height="1" fill="currentColor" />
<rect x="27" y="8" width="1" height="1" fill="currentColor" />
<rect x="28" y="8" width="1" height="1" fill="currentColor" />
<rect x="29" y="8" width="1" height="1" fill="currentColor" />
<rect x="30" y="8" width="1" height="1" fill="currentColor" />
<rect x="31" y="8" width="1" height="1" fill="currentColor" />
<rect x="0" y="9" width="1" height="1" fill="currentColor" />
<rect x="1" y="9" width="1" height="1" fill="currentColor" />
<rect x="2" y="9" width="1" height="1" fill="currentColor" />
<rect x="5" y="9" width="1" height="1" fill="currentColor" />
<rect x="6" y="9" width="1" height="1" fill="currentColor" />
<rect x="25" y="9" width="1" height="1" fill="currentColor" />
<rect x="26" y="9" width="1" height="1" fill="currentColor" />
<rect x="29" y="9" width="1" height="1" fill="currentColor" />
<rect x="30" y="9" width="1" height="1" fill="currentColor" />
<rect x="31" y="9" width="1" height="1" fill="currentColor" />
<rect x="0" y="10" width="1" height="1" fill="currentColor" />
<rect x="1" y="10" width="1" height="1" fill="currentColor" />
<rect x="6" y="10" width="1" height="1" fill="currentColor" />
<rect x="7" y="10" width="1" height="1" fill="currentColor" />
<rect x="24" y="10" width="1" height="1" fill="currentColor" />
<rect x="25" y="10" width="1" height="1" fill="currentColor" />
<rect x="30" y="10" width="1" height="1" fill="currentColor" />
<rect x="31" y="10" width="1" height="1" fill="currentColor" />
<rect x="0" y="11" width="1" height="1" fill="currentColor" />
<rect x="1" y="11" width="1" height="1" fill="currentColor" />
<rect x="7" y="11" width="1" height="1" fill="currentColor" />
<rect x="8" y="11" width="1" height="1" fill="currentColor" />
<rect x="23" y="11" width="1" height="1" fill="currentColor" />
<rect x="24" y="11" width="1" height="1" fill="currentColor" />
<rect x="30" y="11" width="1" height="1" fill="currentColor" />
<rect x="31" y="11" width="1" height="1" fill="currentColor" />
<rect x="0" y="12" width="1" height="1" fill="currentColor" />
<rect x="1" y="12" width="1" height="1" fill="currentColor" />
<rect x="8" y="12" width="1" height="1" fill="currentColor" />
<rect x="9" y="12" width="1" height="1" fill="currentColor" />
<rect x="22" y="12" width="1" height="1" fill="currentColor" />
<rect x="23" y="12" width="1" height="1" fill="currentColor" />
<rect x="30" y="12" width="1" height="1" fill="currentColor" />
<rect x="31" y="12" width="1" height="1" fill="currentColor" />
<rect x="0" y="13" width="1" height="1" fill="currentColor" />
<rect x="1" y="13" width="1" height="1" fill="currentColor" />
<rect x="9" y="13" width="1" height="1" fill="currentColor" />
<rect x="10" y="13" width="1" height="1" fill="currentColor" />
<rect x="21" y="13" width="1" height="1" fill="currentColor" />
<rect x="22" y="13" width="1" height="1" fill="currentColor" />
<rect x="30" y="13" width="1" height="1" fill="currentColor" />
<rect x="31" y="13" width="1" height="1" fill="currentColor" />
<rect x="0" y="14" width="1" height="1" fill="currentColor" />
<rect x="1" y="14" width="1" height="1" fill="currentColor" />
<rect x="10" y="14" width="1" height="1" fill="currentColor" />
<rect x="11" y="14" width="1" height="1" fill="currentColor" />
<rect x="20" y="14" width="1" height="1" fill="currentColor" />
<rect x="21" y="14" width="1" height="1" fill="currentColor" />
<rect x="30" y="14" width="1" height="1" fill="currentColor" />
<rect x="31" y="14" width="1" height="1" fill="currentColor" />
<rect x="0" y="15" width="1" height="1" fill="currentColor" />
<rect x="1" y="15" width="1" height="1" fill="currentColor" />
<rect x="11" y="15" width="1" height="1" fill="currentColor" />
<rect x="12" y="15" width="1" height="1" fill="currentColor" />
<rect x="19" y="15" width="1" height="1" fill="currentColor" />
<rect x="20" y="15" width="1" height="1" fill="currentColor" />
<rect x="30" y="15" width="1" height="1" fill="currentColor" />
<rect x="31" y="15" width="1" height="1" fill="currentColor" />
<rect x="0" y="16" width="1" height="1" fill="currentColor" />
<rect x="1" y="16" width="1" height="1" fill="currentColor" />
<rect x="12" y="16" width="1" height="1" fill="currentColor" />
<rect x="13" y="16" width="1" height="1" fill="currentColor" />
<rect x="18" y="16" width="1" height="1" fill="currentColor" />
<rect x="19" y="16" width="1" height="1" fill="currentColor" />
<rect x="30" y="16" width="1" height="1" fill="currentColor" />
<rect x="31" y="16" width="1" height="1" fill="currentColor" />
<rect x="0" y="17" width="1" height="1" fill="currentColor" />
<rect x="1" y="17" width="1" height="1" fill="currentColor" />
<rect x="13" y="17" width="1" height="1" fill="currentColor" />
<rect x="14" y="17" width="1" height="1" fill="currentColor" />
<rect x="17" y="17" width="1" height="1" fill="currentColor" />
<rect x="18" y="17" width="1" height="1" fill="currentColor" />
<rect x="30" y="17" width="1" height="1" fill="currentColor" />
<rect x="31" y="17" width="1" height="1" fill="currentColor" />
<rect x="0" y="18" width="1" height="1" fill="currentColor" />
<rect x="1" y="18" width="1" height="1" fill="currentColor" />
<rect x="14" y="18" width="1" height="1" fill="currentColor" />
<rect x="15" y="18" width="1" height="1" fill="currentColor" />
<rect x="16" y="18" width="1" height="1" fill="currentColor" />
<rect x="17" y="18" width="1" height="1" fill="currentColor" />
<rect x="30" y="18" width="1" height="1" fill="currentColor" />
<rect x="31" y="18" width="1" height="1" fill="currentColor" />
<rect x="0" y="19" width="1" height="1" fill="currentColor" />
<rect x="1" y="19" width="1" height="1" fill="currentColor" />
<rect x="15" y="19" width="1" height="1" fill="currentColor" />
<rect x="16" y="19" width="1" height="1" fill="currentColor" />
<rect x="30" y="19" width="1" height="1" fill="currentColor" />
<rect x="31" y="19" width="1" height="1" fill="currentColor" />
<rect x="0" y="20" width="1" height="1" fill="currentColor" />
<rect x="1" y="20" width="1" height="1" fill="currentColor" />
<rect x="30" y="20" width="1" height="1" fill="currentColor" />
<rect x="31" y="20" width="1" height="1" fill="currentColor" />
<rect x="0" y="21" width="1" height="1" fill="currentColor" />
<rect x="1" y="21" width="1" height="1" fill="currentColor" />
<rect x="30" y="21" width="1" height="1" fill="currentColor" />
<rect x="31" y="21" width="1" height="1" fill="currentColor" />
<rect x="0" y="22" width="1" height="1" fill="currentColor" />
<rect x="1" y="22" width="1" height="1" fill="currentColor" />
<rect x="2" y="22" width="1" height="1" fill="currentColor" />
<rect x="29" y="22" width="1" height="1" fill="currentColor" />
<rect x="30" y="22" width="1" height="1" fill="currentColor" />
<rect x="31" y="22" width="1" height="1" fill="currentColor" />
<rect x="0" y="23" width="1" height="1" fill="currentColor" />
<rect x="1" y="23" width="1" height="1" fill="currentColor" />
<rect x="2" y="23" width="1" height="1" fill="currentColor" />
<rect x="3" y="23" width="1" height="1" fill="currentColor" />
<rect x="28" y="23" width="1" height="1" fill="currentColor" />
<rect x="29" y="23" width="1" height="1" fill="currentColor" />
<rect x="30" y="23" width="1" height="1" fill="currentColor" />
<rect x="31" y="23" width="1" height="1" fill="currentColor" />
<rect x="1" y="24" width="1" height="1" fill="currentColor" />
<rect x="2" y="24" width="1" height="1" fill="currentColor" />
<rect x="3" y="24" width="1" height="1" fill="currentColor" />
<rect x="4" y="24" width="1" height="1" fill="currentColor" />
<rect x="27" y="24" width="1" height="1" fill="currentColor" />
<rect x="28" y="24" width="1" height="1" fill="currentColor" />
<rect x="29" y="24" width="1" height="1" fill="currentColor" />
<rect x="30" y="24" width="1" height="1" fill="currentColor" />
<rect x="2" y="25" width="1" height="1" fill="currentColor" />
<rect x="3" y="25" width="1" height="1" fill="currentColor" />
<rect x="4" y="25" width="1" height="1" fill="currentColor" />
<rect x="5" y="25" width="1" height="1" fill="currentColor" />
<rect x="6" y="25" width="1" height="1" fill="currentColor" />
<rect x="7" y="25" width="1" height="1" fill="currentColor" />
<rect x="8" y="25" width="1" height="1" fill="currentColor" />
<rect x="9" y="25" width="1" height="1" fill="currentColor" />
<rect x="10" y="25" width="1" height="1" fill="currentColor" />
<rect x="11" y="25" width="1" height="1" fill="currentColor" />
<rect x="12" y="25" width="1" height="1" fill="currentColor" />
<rect x="13" y="25" width="1" height="1" fill="currentColor" />
<rect x="14" y="25" width="1" height="1" fill="currentColor" />
<rect x="15" y="25" width="1" height="1" fill="currentColor" />
<rect x="16" y="25" width="1" height="1" fill="currentColor" />
<rect x="17" y="25" width="1" height="1" fill="currentColor" />
<rect x="18" y="25" width="1" height="1" fill="currentColor" />
<rect x="19" y="25" width="1" height="1" fill="currentColor" />
<rect x="20" y="25" width="1" height="1" fill="currentColor" />
<rect x="21" y="25" width="1" height="1" fill="currentColor" />
<rect x="22" y="25" width="1" height="1" fill="currentColor" />
<rect x="23" y="25" width="1" height="1" fill="currentColor" />
<rect x="24" y="25" width="1" height="1" fill="currentColor" />
<rect x="25" y="25" width="1" height="1" fill="currentColor" />
<rect x="26" y="25" width="1" height="1" fill="currentColor" />
<rect x="27" y="25" width="1" height="1" fill="currentColor" />
<rect x="28" y="25" width="1" height="1" fill="currentColor" />
<rect x="29" y="25" width="1" height="1" fill="currentColor" />
<rect x="3" y="26" width="1" height="1" fill="currentColor" />
<rect x="4" y="26" width="1" height="1" fill="currentColor" />
<rect x="5" y="26" width="1" height="1" fill="currentColor" />
<rect x="6" y="26" width="1" height="1" fill="currentColor" />
<rect x="7" y="26" width="1" height="1" fill="currentColor" />
<rect x="8" y="26" width="1" height="1" fill="currentColor" />
<rect x="9" y="26" width="1" height="1" fill="currentColor" />
<rect x="10" y="26" width="1" height="1" fill="currentColor" />
<rect x="11" y="26" width="1" height="1" fill="currentColor" />
<rect x="12" y="26" width="1" height="1" fill="currentColor" />
<rect x="13" y="26" width="1" height="1" fill="currentColor" />
<rect x="14" y="26" width="1" height="1" fill="currentColor" />
<rect x="15" y="26" width="1" height="1" fill="currentColor" />
<rect x="16" y="26" width="1" height="1" fill="currentColor" />
<rect x="17" y="26" width="1" height="1" fill="currentColor" />
<rect x="18" y="26" width="1" height="1" fill="currentColor" />
<rect x="19" y="26" width="1" height="1" fill="currentColor" />
<rect x="20" y="26" width="1" height="1" fill="currentColor" />
<rect x="21" y="26" width="1" height="1" fill="currentColor" />
<rect x="22" y="26" width="1" height="1" fill="currentColor" />
<rect x="23" y="26" width="1" height="1" fill="currentColor" />
<rect x="24" y="26" width="1" height="1" fill="currentColor" />
<rect x="25" y="26" width="1" height="1" fill="currentColor" />
<rect x="26" y="26" width="1" height="1" fill="currentColor" />
<rect x="27" y="26" width="1" height="1" fill="currentColor" />
<rect x="28" y="26" width="1" height="1" fill="currentColor" />
</svg>